<svg width="84" height="92" viewBox="0 0 84 92" fill="none" xmlns="http://www.w3.org/2000/svg">
<path fill-rule="evenodd" clip-rule="evenodd" d="M2.37017 25.1755C2.20735 25.4466 1.72427 27.5896 1.29747 29.9386C0.452242 34.5861 0.189455 57.6529 0.949082 60.4352C1.1963 61.3386 4.75979 66.0402 8.868 70.8832C12.9768 75.7262 16.3445 79.8968 16.3511 80.15C16.3583 80.4032 15.561 80.6109 14.5793 80.6109C12.4261 80.6109 12.0226 81.7528 12.2896 87.0899C12.4494 90.279 12.6272 90.7516 13.67 90.7516C14.7211 90.7516 14.8887 90.2809 15.0456 86.8969L15.2246 83.0416L26.1197 83.2094L37.0155 83.3766L37.0748 87.0641C37.1274 90.3669 37.2705 90.7725 38.4462 90.9514C39.7194 91.145 39.7541 90.9969 39.5847 86.0347C39.4111 80.9606 39.3962 80.9164 37.7638 80.724L36.1176 80.5292L36.114 75.1927C36.1092 67.377 35.4771 65.7096 30.5165 60.4241C28.1646 57.9184 25.4325 55.5092 24.4448 55.0698C23.4572 54.631 21.3153 52.872 19.6848 51.1616C18.0548 49.4506 15.8651 47.7611 14.8193 47.4071C13.1696 46.8478 12.7888 46.2934 11.952 43.2297C11.2253 40.5716 11.1331 39.1704 11.5797 37.5718C11.9065 36.4029 12.1735 34.7717 12.1735 33.9463C12.1735 31.4867 9.83295 27.2762 7.72048 25.9358C5.72534 24.6697 2.91489 24.2702 2.37017 25.1755ZM77.089 25.2726C75.2447 26.0396 72.2026 29.871 71.747 32.0005C71.5262 33.0331 71.6405 35.3378 72.0015 37.1219C72.557 39.871 72.4881 40.8783 71.5489 43.7152C70.6301 46.4901 70.141 47.1428 68.693 47.5288C67.7322 47.7844 65.4731 49.525 63.6737 51.3958C61.8743 53.2672 60.027 54.7981 59.5697 54.7981C58.4455 54.7981 50.0082 63.2457 48.8271 65.5535C48.2076 66.7642 47.7904 69.654 47.612 73.9709C47.3408 80.5261 47.3354 80.5445 45.7695 80.7314C44.2203 80.9158 44.1987 80.9858 44.1987 85.8349C44.1987 90.3417 44.2987 90.7516 45.396 90.7516C46.4465 90.7516 46.6147 90.2809 46.7715 86.9105L46.9493 83.0693H57.6673H68.3853L68.5631 86.9105C68.7199 90.2809 68.8881 90.7516 69.9387 90.7516C70.9814 90.7516 71.1592 90.279 71.3191 87.0899C71.586 81.7528 71.1826 80.6109 69.0294 80.6109C68.0477 80.6109 67.2474 80.4032 67.2504 80.15C67.2539 79.8968 70.6301 75.7366 74.7532 70.9065C81.4636 63.0447 82.3106 61.7952 82.829 58.9915C84.025 52.5156 83.1911 30.4856 81.5857 26.1509C81.0158 24.6107 79.4271 24.3003 77.089 25.2726ZM7.29846 29.2306C9.47558 31.2237 9.91376 33.0423 9.13917 36.873C8.56092 39.7315 8.61659 40.8082 9.49653 43.7927C10.5243 47.2768 10.5207 47.3499 9.26068 48.994C6.58134 52.4916 7.95992 55.9321 14.7678 62.7356C17.616 65.5817 18.2337 65.948 19.0335 65.2665C19.8524 64.5689 19.3717 63.8314 15.1731 59.3412C10.3723 54.2063 9.47379 52.2845 11.096 50.6189C12.7104 48.9614 14.8409 49.815 18.4588 53.569C20.4139 55.5971 22.3869 57.2565 22.8436 57.2565C23.3009 57.2565 25.6391 59.2121 28.0401 61.6023C33.0234 66.5639 33.7232 68.332 33.7232 75.9665V80.6109H26.525C19.6177 80.6109 19.3052 80.555 18.7922 79.2281C18.4983 78.4672 14.8935 73.9051 10.7823 69.0898L3.30638 60.3344L2.85563 54.3397C2.41446 48.4703 3.28124 30.3805 4.10731 28.2208C4.55148 27.0592 5.12613 27.2412 7.29846 29.2306ZM80.3801 35.0796C81.1026 42.3041 81.1571 53.7656 80.4891 57.9209C80.0934 60.3792 79.1057 61.8198 72.6898 69.2908C68.6499 73.9955 65.1049 78.4672 64.8128 79.2281C64.3028 80.555 63.9915 80.6109 57.0837 80.6109H49.8855V76.3389C49.8855 68.407 50.6002 66.5485 55.5435 61.6275C57.9582 59.2232 60.3078 57.2565 60.7651 57.2565C61.2218 57.2565 63.1948 55.5971 65.1498 53.569C68.7678 49.815 70.8982 48.9614 72.5127 50.6189C74.1816 52.3324 73.2651 54.2979 68.423 59.391C64.1017 63.9365 63.715 64.5332 64.6003 65.288C65.4713 66.0298 66.1675 65.5092 70.6055 60.7965C75.2896 55.822 75.6254 55.2917 75.6254 52.8671C75.6254 51.0485 75.2363 49.8427 74.3312 48.8532C73.0454 47.4483 73.0436 47.4151 74.1002 43.8332C74.9897 40.8156 75.0549 39.7075 74.4982 37.0414C73.7027 33.2346 74.527 30.5765 77.1614 28.4488C79.3631 26.6702 79.5858 27.1287 80.3801 35.0796ZM29.533 87.3714C29.533 88.3277 29.9322 88.6006 31.3288 88.6006C32.7253 88.6006 33.1246 88.3277 33.1246 87.3714C33.1246 86.4151 32.7253 86.1422 31.3288 86.1422C29.9322 86.1422 29.533 86.4151 29.533 87.3714ZM50.4841 87.3714C50.4841 88.3277 50.8833 88.6006 52.2799 88.6006C53.6764 88.6006 54.0757 88.3277 54.0757 87.3714C54.0757 86.4151 53.6764 86.1422 52.2799 86.1422C50.8833 86.1422 50.4841 86.4151 50.4841 87.3714Z" fill="#78BB21" stroke="#78BB21" stroke-width="0.559034"/>
<path d="M41.116 8.39489C43.4395 6.51024 45.942 4.04762 46.6777 2.9217C48.4272 0.245786 49.648 0.340864 52.2466 3.35518C56.7743 8.60944 59.0614 16.22 58.4193 23.8962C57.7415 31.9978 55.171 36.7698 49.864 39.7772C45.8579 42.0478 44.0374 42.2461 43.7922 40.439C43.6627 39.4795 43.9073 39.0316 44.5619 39.0316C46.377 39.0316 50.123 36.5696 52.2257 33.9938C57.4074 27.648 56.9927 14.6143 51.3522 6.57466L49.4684 3.88936L48.1116 5.70646C47.3657 6.70602 44.0619 9.71471 40.7699 12.3919C33.6133 18.2122 31.0756 21.8595 30.677 26.898C30.4598 29.6409 30.7062 30.8925 32.013 33.6929C32.8943 35.5807 34.3359 37.7199 35.2172 38.4467L36.8199 39.7678L37.8211 35.1778C38.777 30.7943 41.3857 23.7498 44.2773 17.7418C45.9689 14.2284 45.7523 14.4135 47.21 15.2317C48.4278 15.9147 48.4016 16.0304 45.8012 21.4592C40.792 31.9139 38.851 40.8612 40.1231 47.6273C41.1274 52.9685 41.1196 53.1055 39.8105 53.1055C38.8737 53.1055 38.4745 52.4418 37.9285 49.978C37.5472 48.2578 37.1994 46.006 37.1552 44.9739C37.0967 43.5965 36.5722 42.7646 35.1855 41.8464C32.3984 40.0011 29.5063 35.6707 28.4024 31.6894C27.5933 28.7714 27.5467 27.638 28.1243 24.9302C29.3708 19.0936 31.9067 15.8653 41.116 8.39489Z" fill="#78BB21" stroke="#78BB21" stroke-width="0.559034"/>
</svg>
