<svg width="93" height="94" viewBox="0 0 93 94" fill="none" xmlns="http://www.w3.org/2000/svg">
<path fill-rule="evenodd" clip-rule="evenodd" d="M44.615 15.5172C38.1412 16.075 32.9804 17.9716 28.1762 21.5585C21.4655 26.5688 17.0819 34.1298 16.0499 42.474C15.854 44.0587 15.8534 47.7426 16.0489 49.4603C16.6611 54.8409 18.7688 60.1453 22.0352 64.5259C23.1199 65.9807 25.6432 68.598 27.1051 69.7847L28.2773 70.7364L28.3506 74.0631C28.422 77.3024 28.4344 77.4125 28.8227 78.2439C29.3435 79.359 30.5639 80.554 31.6385 81.0007C32.2552 81.2572 32.4401 81.4009 32.3738 81.5717C32.325 81.6972 32.2171 82.1356 32.1343 82.5458C31.8507 83.9504 32.6199 85.8702 33.8406 86.8044C34.5047 87.3124 35.6914 87.7534 36.3949 87.7534H36.9633L36.8869 88.9802C36.8292 89.909 36.8717 90.3917 37.062 90.9665C37.3967 91.9772 38.5095 93.1925 39.5203 93.6507L40.2925 94.0008H46.3733H52.4541L53.2898 93.5892C55.1152 92.6899 56.0134 91.0473 55.849 88.9087L55.7602 87.7534H56.2418C57.6363 87.7534 59.2748 86.775 59.9936 85.5128C60.733 84.2148 60.8627 82.8816 60.3762 81.5792C60.317 81.4204 60.5472 81.2409 61.2001 80.9365C62.3076 80.4199 63.3473 79.3837 63.9081 78.2374C64.3208 77.3938 64.3229 77.3751 64.3692 74.0561L64.4156 70.722L65.2483 70.0923C67.3991 68.4654 70.1826 65.4027 71.9087 62.7636C78.9 52.0751 78.4341 38.1485 70.7356 27.7045C69.5461 26.0908 66.5014 23.0053 64.9088 21.7996C59.6669 17.8311 53.7015 15.7002 47.3257 15.5188C46.1975 15.4867 44.9776 15.486 44.615 15.5172ZM50.6012 18.7488C59.4745 20.0704 67.3961 26.0451 71.3213 34.3759C73.0248 37.9915 73.9202 42.1117 73.9202 46.3347C73.9202 58.6697 65.1802 69.8416 53.1399 72.8971C51.866 73.2204 49.1671 73.6415 48.3693 73.6415H47.8386V69.9666V66.2916H49.278C55.8947 66.2916 62.1281 62.4028 65.2054 56.3548C66.2276 54.3459 67.0335 51.4799 67.0335 49.8538C67.0335 48.3375 66.3049 48.0081 62.9307 47.9981C59.7691 47.9888 57.4489 48.5292 54.68 49.9195C52.461 51.0338 49.9628 53.1357 48.5237 55.0991L47.8386 56.0341V53.7372V51.4404L48.6972 50.3564C50.4837 48.1011 51.4585 46.2153 52.1716 43.6353C52.6791 41.7996 52.8203 38.502 52.4764 36.5221C51.8956 33.1783 50.3206 30.0225 48.0586 27.671C47.0939 26.6682 46.9914 26.602 46.3979 26.602C45.8315 26.602 45.6773 26.6863 44.9211 27.4099C42.6559 29.5776 40.7495 33.3113 40.2174 36.6225C39.9439 38.3252 40.0989 41.9294 40.5136 43.5069C41.1706 46.0066 42.2357 48.1053 43.919 50.2166L44.908 51.4571V53.7622C44.908 55.9661 44.8972 56.0513 44.6622 55.7038C44.5269 55.5038 43.9901 54.8287 43.4692 54.2035C41.1173 51.3807 37.6556 49.2907 33.8453 48.3931C32.5234 48.0817 31.8516 48.0113 30.1089 48.0019C27.5421 47.9879 26.734 48.1101 26.1534 48.6002C25.7589 48.9333 25.7134 49.0583 25.7155 49.8041C25.72 51.4564 26.522 54.3922 27.5087 56.3692C28.8116 58.9795 31.124 61.5713 33.6988 63.3071C36.5188 65.2082 40.0654 66.2916 43.4686 66.2916H44.908V69.9885V73.6852L43.6992 73.5985C39.9207 73.3271 34.933 71.6125 31.6161 69.4446C24.6054 64.8626 20.1002 57.7967 19.0462 49.7305C17.9594 41.414 20.6124 33.1449 26.2893 27.1537C31.1614 22.0119 37.4144 19.034 44.5417 18.4613C45.8043 18.3598 49.0119 18.512 50.6012 18.7488ZM47.069 30.9774C47.9104 32.1168 48.9463 34.2608 49.334 35.6652C49.6046 36.6453 49.6527 37.2047 49.6539 39.3909C49.6552 41.773 49.6259 42.0589 49.2588 43.2552C49.0407 43.9658 48.6242 45.0242 48.3334 45.6072C47.7509 46.7745 46.5805 48.5048 46.3733 48.5048C46.1241 48.5048 44.9025 46.6215 44.2616 45.2491C43.25 43.0826 43.0787 42.2249 43.0775 39.3174C43.0763 36.4129 43.2932 35.3981 44.3967 33.1435C44.9716 31.9689 46.1767 30.1343 46.3733 30.1343C46.4136 30.1343 46.7267 30.5137 47.069 30.9774ZM33.4965 51.3485C38.2161 52.5658 41.9736 55.8613 43.8557 60.4345C44.1105 61.0535 44.4126 61.963 44.5272 62.4557L44.7356 63.3516H43.5222C37.8366 63.3516 32.5512 59.9868 30.0345 54.7649C29.4548 53.5621 28.7902 51.5627 28.7902 51.0216C28.7902 50.6927 31.7513 50.8985 33.4965 51.3485ZM63.9564 51.041C63.9564 51.1422 63.8338 51.6556 63.6839 52.1815C62.4945 56.3538 59.6188 59.8437 55.751 61.8086C53.8653 62.7666 51.3846 63.3516 49.2086 63.3516H47.9795L48.0705 62.9474C48.7554 59.9076 50.1743 57.3507 52.3464 55.2422C55.2438 52.4297 58.8567 50.922 62.8208 50.8713C63.6408 50.8607 63.9564 50.9079 63.9564 51.041ZM32.849 73.4765C39.3386 76.7167 46.92 77.5111 54.0138 75.6941C55.7976 75.2372 58.2107 74.3339 59.8584 73.5064C60.6763 73.0956 61.3724 72.7595 61.4055 72.7595C61.5405 72.7595 61.4536 76.4467 61.3096 76.8292C61.1187 77.3362 60.5021 78.0067 59.9709 78.2851C59.6389 78.4591 57.4523 78.4925 46.3733 78.4925C35.2943 78.4925 33.1077 78.4591 32.7757 78.2851C32.2445 78.0067 31.628 77.3362 31.437 76.8292C31.289 76.4366 31.2079 72.7595 31.3471 72.7595C31.3833 72.7595 32.0592 73.0822 32.849 73.4765ZM57.1182 81.8801C57.5464 82.218 57.8056 82.9662 57.6952 83.5454C57.6548 83.7575 57.3963 84.1296 57.1208 84.3723L56.6199 84.8134H46.4009C37.0126 84.8134 36.1522 84.793 35.8195 84.5629C35.0609 84.0384 34.8249 83.3265 35.1504 82.5451C35.5765 81.522 34.9079 81.5795 46.3862 81.5795C56.592 81.5795 56.7425 81.5837 57.1182 81.8801ZM52.0858 88.0109C53.2824 88.613 53.2827 90.294 52.0862 90.9147C51.7335 91.0976 50.7795 91.1344 46.3733 91.1344C40.6953 91.1344 40.5298 91.1144 40.0084 90.3675C39.7102 89.9406 39.7156 88.9395 40.0182 88.506C40.5109 87.8004 40.8097 87.7653 46.3733 87.7594C51.04 87.7544 51.6276 87.7803 52.0858 88.0109Z" fill="#78BB21"/>
<path d="M44.9124 5.26523C44.918 0.813675 44.9505 0.592735 45.656 0.200543C46.27 -0.140934 46.7976 -0.0486196 47.3396 0.495128L47.8378 0.994924V5.21378V9.43264L47.3396 9.93243C46.9806 10.2926 46.7104 10.4322 46.3725 10.4322C46.0347 10.4322 45.7645 10.2926 45.4055 9.93243L44.9073 9.43264L44.9124 5.26523Z" fill="#78BB21"/>
<path d="M13.6168 15.0492C13.3075 14.3362 13.6407 13.5111 14.3566 13.2171C14.7974 13.0362 15.1345 13.0557 15.5728 13.2874C15.7904 13.4025 17.2378 14.779 18.789 16.3463C21.5396 19.1251 21.6096 19.2108 21.6096 19.8038C21.6096 20.7149 21.1079 21.2366 20.2317 21.2366H19.5611L16.6875 18.3701C15.1071 16.7936 13.7252 15.2991 13.6168 15.0492Z" fill="#78BB21"/>
<path d="M74.0293 16.2703C75.6209 14.6615 77.0551 13.2863 77.2163 13.2142C77.6548 13.0181 78.4606 13.1729 78.8342 13.5249C79.2571 13.9234 79.3658 14.5031 79.1227 15.0627C79.0172 15.3052 77.638 16.7936 76.0575 18.3701L73.184 21.2366H72.5134C71.637 21.2366 71.1354 20.7149 71.1354 19.8035C71.1354 19.2099 71.2046 19.1254 74.0293 16.2703Z" fill="#78BB21"/>
<path d="M0.887055 47.0791C0.108416 46.298 0.575402 44.8153 1.65676 44.6348C1.87216 44.5989 3.79575 44.5785 5.93136 44.5894C10.0808 44.6107 10.2432 44.6377 10.6338 45.3698C10.9415 45.9466 10.8278 46.6003 10.3336 47.0964L9.88244 47.5493L6.33167 47.5983C2.0641 47.6571 1.40004 47.5937 0.887055 47.0791Z" fill="#78BB21"/>
<path d="M81.9476 45.7599C82.0135 45.3223 82.6502 44.7142 83.1252 44.6348C83.3406 44.5989 85.2765 44.5785 87.4271 44.5894L91.3373 44.6094L91.7862 45.0411C92.4216 45.652 92.4216 46.5067 91.7862 47.1176L91.3373 47.5493L87.7934 47.5983C85.8443 47.6252 83.9083 47.6045 83.4911 47.5523C82.376 47.4128 81.7995 46.7432 81.9476 45.7599Z" fill="#78BB21"/>
</svg>
