<svg width="108" height="92" viewBox="0 0 108 92" fill="none" xmlns="http://www.w3.org/2000/svg">
<path fill-rule="evenodd" clip-rule="evenodd" d="M34.9732 1.10515C33.3526 1.38074 30.5944 2.26451 29.0308 3.00885C21.7319 6.48365 17.0871 13.6297 16.7556 21.894L16.6824 23.7149L15.359 24.1412C12.1588 25.1722 8.47394 27.539 6.21924 30.0119C2.0711 34.5615 -0.0263216 40.8492 0.61319 46.8181C1.59774 56.0096 7.78889 63.2334 16.8009 65.7061L18.667 66.2181L30.1971 66.2827L41.7272 66.3473V72.8792V79.411L39.8423 77.5238C38.2373 75.9168 37.8647 75.6366 37.3336 75.6366C36.5208 75.6366 35.938 76.2246 35.938 77.0448C35.938 77.605 36.3176 78.0581 39.2687 81.0205C42.2828 84.046 42.6624 84.3638 43.2602 84.3638C43.8565 84.3638 44.237 84.0479 47.1739 81.1153C48.9633 79.3288 50.4749 77.6768 50.5329 77.4445C50.7707 76.4953 50.1316 75.6366 49.1873 75.6366C48.6644 75.6366 48.291 75.9182 46.7445 77.479C45.7405 78.4923 44.852 79.3214 44.7704 79.3214C44.6886 79.3214 44.6218 74.0948 44.6218 67.7066C44.6218 56.7078 44.6029 56.0684 44.266 55.65C43.7963 55.067 42.8192 55.0591 42.2471 55.6335C41.8457 56.0365 41.8206 56.2497 41.7637 59.7483L41.7037 63.4382L30.2818 63.3729C19.2358 63.3096 18.8105 63.2935 17.3578 62.8843C10.6854 61.0049 5.70883 55.9498 3.95548 49.2706C3.54676 47.7137 3.46938 46.9858 3.46938 44.7033C3.46938 42.3992 3.54522 41.6985 3.9713 40.0736C5.72542 33.3824 10.9135 28.178 17.4609 26.5414C18.3366 26.3224 19.1832 26.0181 19.3424 25.8649C19.5706 25.6454 19.6388 24.9844 19.665 22.733C19.7021 19.5365 20.1507 17.2913 21.2308 14.8973C23.143 10.6588 26.9694 6.90605 31.0705 5.24729C33.8603 4.11896 34.6272 3.98359 38.2537 3.97971C41.2461 3.97661 41.8065 4.02839 43.1745 4.4345C48.2231 5.93364 52.0966 9.03744 54.6579 13.6369C55.3802 14.9338 55.98 15.418 56.6139 15.2157C56.8518 15.1399 57.6592 14.6085 58.4084 14.0349C68.9678 5.94761 84.077 11.054 87.7512 23.9519C88.0249 24.9119 88.3537 25.7976 88.4824 25.9204C88.6109 26.0429 89.4324 26.3224 90.3081 26.5414C93.4626 27.3299 96.5836 29.1233 98.9487 31.5068C104.611 37.2123 105.994 45.8786 102.393 53.0798C99.7844 58.2957 95.1384 61.8328 89.295 63.0511C87.7213 63.3793 86.5486 63.4136 76.8 63.4159L66.0418 63.4184V64.873V66.3275L76.7035 66.3267C85.1374 66.3262 87.729 66.2666 89.1065 66.0422C95.963 64.9246 101.735 60.7287 104.859 54.5905C106.565 51.2379 107.214 48.5139 107.214 44.7033C107.214 41.9298 106.996 40.4499 106.24 38.1094C104.085 31.4321 98.939 26.2784 92.2164 24.0644L90.6971 23.564L90.0617 21.7693C87.2563 13.8465 80.5829 8.46086 72.2169 7.36782C67.4507 6.74508 61.8024 8.12146 57.8173 10.8771C57.3673 11.1882 56.9279 11.4386 56.8408 11.4335C56.7538 11.4285 56.3787 10.9415 56.0072 10.3516C53.151 5.81495 47.3169 2.06534 41.7272 1.17322C40.5221 0.981029 35.9726 0.935066 34.9732 1.10515ZM61.132 62.298C60.9668 62.535 60.8315 62.8841 60.8315 63.0738C60.8315 63.3977 60.413 63.4184 53.8845 63.4184H46.9375V64.873V66.3275H53.8845H60.8315V76.1214C60.8315 81.5081 60.7647 85.9153 60.6829 85.9153C60.6013 85.9153 59.7129 85.0862 58.7088 84.0729C57.1625 82.5125 56.7887 82.2305 56.2662 82.2305C55.8295 82.2305 55.5325 82.3798 55.2494 82.7415C54.4561 83.755 54.5983 83.9913 58.1857 87.6131C61.1127 90.5681 61.5999 90.9835 62.158 90.9994C62.7327 91.0159 63.118 90.6922 66.1547 87.6443C69.1336 84.6541 69.5153 84.1992 69.5153 83.6387C69.5153 82.8269 68.9317 82.2305 68.1375 82.2305C67.6309 82.2305 67.2201 82.5379 65.6333 84.1049L63.735 85.9791L63.6823 74.3312C63.6319 63.1896 63.6136 62.6654 63.262 62.275C62.7437 61.6998 61.5399 61.7126 61.132 62.298Z" fill="#78BB21" stroke="#78BB21" stroke-width="0.559034"/>
<path fill-rule="evenodd" clip-rule="evenodd" d="M48.3132 33.8983C49.6506 30.5167 52.8583 28.0252 56.3403 27.6635C60.7272 27.2077 64.6132 29.3388 66.4558 33.211C67.7001 35.8256 67.8051 38.4898 66.7701 41.183C64.6775 46.6285 58.2698 49.0499 53.0327 46.3742C51.2437 45.46 49.5427 43.7342 48.7067 41.9854C48.0556 40.6234 47.6141 38.8446 47.6141 37.5841C47.6141 36.6203 47.9618 34.7869 48.3132 33.8983ZM33.4772 35.0525C34.3494 31.6245 37.2571 28.6834 40.5704 27.8772C41.0589 27.7583 42.129 27.6554 42.9486 27.6484C46.2146 27.6206 48.5111 28.7313 47.888 30.0379C47.5547 30.7368 47.0557 30.7982 45.6138 30.3179C42.664 29.3355 39.7071 30.0329 37.583 32.212C35.225 34.6311 34.7671 38.4533 36.4792 41.4239C37.4184 43.0531 39.4183 44.5523 41.3066 45.0422C42.5031 45.3526 44.236 45.2362 45.6191 44.7524C46.9156 44.2989 47.4937 44.3092 47.7986 44.7912C48.015 45.1332 47.9254 46.0642 47.6521 46.3122C47.1133 46.8013 45.0188 47.3789 43.5041 47.4565C36.8659 47.7961 31.822 41.5565 33.4772 35.0525ZM71.3449 39.7591C70.2374 40.1619 69.0367 41.5872 69.0491 42.4843C69.0579 43.1248 69.8291 43.7646 70.3632 43.5745C70.7512 43.4364 71.3241 42.8947 71.3241 42.6658C71.3241 42.3024 72.1047 41.8412 72.7201 41.8412C73.8977 41.8412 74.6231 42.5171 74.4486 43.452C74.327 44.1033 73.6914 44.6414 72.281 45.2874C71.0081 45.8704 70.1693 46.6597 69.5976 47.8126C69.099 48.8183 69.0927 49.2358 69.5694 49.7146C69.9417 50.089 69.9475 50.0896 73.1411 50.0896C76.137 50.0896 76.3589 50.0702 76.6436 49.7841C77.0529 49.3728 77.0452 48.5456 76.6284 48.1658C76.3614 47.9224 75.9962 47.8622 74.3959 47.7984L72.4825 47.722L73.7917 47.0712C75.3836 46.2796 76.2296 45.4001 76.5869 44.1647C77.2909 41.7308 75.4402 39.5253 72.7242 39.5616C72.2468 39.568 71.6261 39.6569 71.3449 39.7591ZM59.3948 30.1067C60.6493 30.3752 62.1138 31.2389 63.0808 32.2805C64.6952 34.019 65.4425 36.2993 65.1242 38.5152C64.3711 43.7593 58.9383 46.696 54.1901 44.4256C51.1179 42.9566 49.3226 39.1847 50.1058 35.8442C50.4289 34.4657 50.9324 33.5086 51.8863 32.4596C53.9462 30.1945 56.324 29.4494 59.3948 30.1067Z" fill="#78BB21"/>
<path d="M56.3403 27.6635L56.3692 27.9415L56.3692 27.9415L56.3403 27.6635ZM48.3132 33.8983L48.5732 34.0011L48.5732 34.0011L48.3132 33.8983ZM66.4558 33.211L66.2034 33.3311L66.2034 33.3311L66.4558 33.211ZM66.7701 41.183L66.5092 41.0828V41.0828L66.7701 41.183ZM53.0327 46.3742L52.9056 46.6231L52.9056 46.6231L53.0327 46.3742ZM48.7067 41.9854L48.9589 41.8649L48.9589 41.8649L48.7067 41.9854ZM40.5704 27.8772L40.5043 27.6056L40.5043 27.6056L40.5704 27.8772ZM33.4772 35.0525L33.7481 35.1214L33.7481 35.1214L33.4772 35.0525ZM42.9486 27.6484L42.9462 27.3689L42.9462 27.3689L42.9486 27.6484ZM47.888 30.0379L48.1403 30.1583L48.1403 30.1583L47.888 30.0379ZM45.6138 30.3179L45.5255 30.5831L45.5255 30.5831L45.6138 30.3179ZM37.583 32.212L37.3828 32.0169L37.3828 32.0169L37.583 32.212ZM36.4792 41.4239L36.2371 41.5635L36.2371 41.5635L36.4792 41.4239ZM41.3066 45.0422L41.3768 44.7716L41.3066 45.0422ZM45.6191 44.7524L45.7114 45.0163L45.7114 45.0163L45.6191 44.7524ZM47.7986 44.7912L47.5624 44.9406L47.5624 44.9407L47.7986 44.7912ZM47.6521 46.3122L47.4643 46.1051L47.4642 46.1052L47.6521 46.3122ZM43.5041 47.4565L43.5183 47.7357L43.5184 47.7357L43.5041 47.4565ZM69.0491 42.4843L69.3286 42.4804V42.4804L69.0491 42.4843ZM71.3449 39.7591L71.2494 39.4964L71.2494 39.4964L71.3449 39.7591ZM70.3632 43.5745L70.2695 43.3111L70.2694 43.3111L70.3632 43.5745ZM74.4486 43.452L74.7234 43.5032L74.7234 43.5032L74.4486 43.452ZM72.281 45.2874L72.1646 45.0332L72.1646 45.0332L72.281 45.2874ZM69.5976 47.8126L69.8481 47.9368L69.8481 47.9368L69.5976 47.8126ZM69.5694 49.7146L69.7676 49.5175L69.7675 49.5174L69.5694 49.7146ZM76.6436 49.7841L76.8418 49.9813V49.9813L76.6436 49.7841ZM76.6284 48.1658L76.8167 47.9592L76.8167 47.9591L76.6284 48.1658ZM74.3959 47.7984L74.3847 48.0777H74.3847L74.3959 47.7984ZM72.4825 47.722L72.3581 47.4717L72.4714 48.0013L72.4825 47.722ZM73.7917 47.0712L73.9162 47.3215L73.9162 47.3214L73.7917 47.0712ZM76.5869 44.1647L76.3184 44.087L76.3184 44.087L76.5869 44.1647ZM72.7242 39.5616L72.7204 39.2821L72.7204 39.2821L72.7242 39.5616ZM63.0808 32.2805L62.8759 32.4706L62.8759 32.4707L63.0808 32.2805ZM59.3948 30.1067L59.4533 29.8334L59.4533 29.8334L59.3948 30.1067ZM65.1242 38.5152L64.8475 38.4754V38.4754L65.1242 38.5152ZM54.1901 44.4256L54.3107 44.1734L54.3107 44.1734L54.1901 44.4256ZM50.1058 35.8442L50.3779 35.908L50.3779 35.908L50.1058 35.8442ZM51.8863 32.4596L51.6795 32.2716V32.2716L51.8863 32.4596ZM56.3114 27.3855C52.7208 27.7585 49.4271 30.3217 48.0533 33.7955L48.5732 34.0011C49.874 30.7116 52.9957 28.2919 56.3692 27.9415L56.3114 27.3855ZM66.7082 33.0909C64.8128 29.1078 60.8115 26.9179 56.3114 27.3855L56.3692 27.9415C60.6429 27.4975 64.4136 29.5699 66.2034 33.3311L66.7082 33.0909ZM67.031 41.2833C68.0936 38.5182 67.9853 35.7744 66.7082 33.0909L66.2034 33.3311C67.4149 35.8768 67.5166 38.4613 66.5092 41.0828L67.031 41.2833ZM52.9056 46.6231C58.2882 49.3732 64.878 46.8861 67.031 41.2833L66.5092 41.0828C64.4771 46.3709 58.2513 48.7266 53.1599 46.1253L52.9056 46.6231ZM48.4545 42.106C49.3179 43.9122 51.064 45.6821 52.9056 46.6231L53.1599 46.1253C51.4234 45.2379 49.7674 43.5562 48.9589 41.8649L48.4545 42.106ZM47.3346 37.5841C47.3346 38.8938 47.7889 40.7136 48.4545 42.106L48.9589 41.8649C48.3223 40.5331 47.8936 38.7955 47.8936 37.5841H47.3346ZM48.0533 33.7955C47.8681 34.2637 47.6895 34.964 47.5573 35.6609C47.4251 36.3579 47.3346 37.0768 47.3346 37.5841H47.8936C47.8936 37.1276 47.977 36.4479 48.1065 35.7651C48.2361 35.0822 48.4069 34.4215 48.5732 34.0011L48.0533 33.7955ZM40.5043 27.6056C37.0859 28.4374 34.1029 31.46 33.2063 34.9836L33.7481 35.1214C34.596 31.789 37.4283 28.9294 40.6365 28.1488L40.5043 27.6056ZM42.9462 27.3689C42.1168 27.376 41.0226 27.4795 40.5043 27.6056L40.6365 28.1488C41.0952 28.0372 42.1413 27.9348 42.9509 27.9279L42.9462 27.3689ZM48.1403 30.1583C48.3381 29.7434 48.3035 29.3282 48.0758 28.9619C47.8579 28.6115 47.4748 28.3216 46.9984 28.0911C46.0422 27.6286 44.6049 27.3547 42.9462 27.3689L42.9509 27.9279C44.5583 27.9142 45.9022 28.1818 46.755 28.5944C47.1832 28.8015 47.4614 29.0325 47.601 29.257C47.7307 29.4656 47.7494 29.6792 47.6357 29.9176L48.1403 30.1583ZM45.5255 30.5831C46.2429 30.8221 46.7839 30.9488 47.2008 30.8975C47.4209 30.8704 47.6114 30.7937 47.7734 30.659C47.9315 30.5277 48.0468 30.3543 48.1403 30.1583L47.6357 29.9176C47.5625 30.071 47.4904 30.1673 47.4162 30.229C47.3458 30.2875 47.259 30.3271 47.1325 30.3427C46.856 30.3767 46.4266 30.294 45.7021 30.0527L45.5255 30.5831ZM37.7831 32.4071C39.8304 30.3068 42.6745 29.6336 45.5255 30.5831L45.7021 30.0527C42.6535 29.0373 39.5838 29.759 37.3828 32.0169L37.7831 32.4071ZM36.7214 41.2843C35.0704 38.4198 35.5143 34.7347 37.7831 32.4071L37.3828 32.0169C34.9357 34.5274 34.4638 38.4868 36.2371 41.5635L36.7214 41.2843ZM41.3768 44.7716C39.5581 44.2998 37.6215 42.8459 36.7214 41.2843L36.2371 41.5635C37.2152 43.2603 39.2786 44.8049 41.2364 45.3128L41.3768 44.7716ZM45.5268 44.4886C44.1862 44.9575 42.5103 45.0657 41.3768 44.7716L41.2364 45.3128C42.4958 45.6395 44.2859 45.5149 45.7114 45.0163L45.5268 44.4886ZM48.0348 44.6418C47.9364 44.4862 47.8086 44.3583 47.6418 44.2706C47.4767 44.1839 47.29 44.1452 47.0857 44.1415C46.6875 44.1345 46.1784 44.2607 45.5268 44.4886L45.7114 45.0163C46.3562 44.7907 46.7844 44.6953 47.0757 44.7005C47.2161 44.703 47.3121 44.7289 47.3817 44.7655C47.4495 44.8011 47.5084 44.8553 47.5624 44.9406L48.0348 44.6418ZM47.8399 46.5192C47.9598 46.4104 48.0359 46.2531 48.0853 46.1082C48.137 45.9563 48.1708 45.7841 48.1872 45.6138C48.2037 45.4432 48.2035 45.2659 48.1827 45.1029C48.1626 44.9451 48.1202 44.7767 48.0348 44.6418L47.5624 44.9407C47.5853 44.9768 47.6128 45.053 47.6282 45.1737C47.6429 45.2892 47.6439 45.4243 47.6308 45.5602C47.6176 45.6963 47.5913 45.8247 47.5561 45.9278C47.5186 46.0379 47.481 46.09 47.4643 46.1051L47.8399 46.5192ZM43.5184 47.7357C44.3003 47.6956 45.2231 47.5275 46.0184 47.3081C46.4167 47.1982 46.7882 47.0741 47.0978 46.9441C47.4003 46.8172 47.6687 46.6746 47.84 46.5191L47.4642 46.1052C47.3661 46.1943 47.1706 46.3073 46.8815 46.4287C46.5995 46.547 46.2517 46.6638 45.8697 46.7692C45.1044 46.9803 44.2225 47.1399 43.4898 47.1774L43.5184 47.7357ZM33.2063 34.9836C31.5057 41.666 36.688 48.0851 43.5183 47.7357L43.4898 47.1774C37.0437 47.5071 32.1383 41.447 33.7481 35.1214L33.2063 34.9836ZM69.3286 42.4804C69.3263 42.3151 69.3811 42.1022 69.4987 41.8579C69.6148 41.6167 69.7844 41.3614 69.9908 41.1164C70.4074 40.6219 70.9464 40.2015 71.4404 40.0218L71.2494 39.4964C70.6358 39.7196 70.0207 40.2132 69.5632 40.7563C69.3325 41.0301 69.1351 41.3245 68.995 41.6154C68.8564 41.9033 68.7657 42.2049 68.7696 42.4882L69.3286 42.4804ZM70.2694 43.3111C70.1353 43.3589 69.9121 43.312 69.6877 43.1257C69.4691 42.9444 69.3316 42.6952 69.3286 42.4804L68.7696 42.4881C68.7755 42.9139 69.028 43.3048 69.3307 43.556C69.6276 43.8023 70.057 43.9802 70.457 43.8378L70.2694 43.3111ZM71.0446 42.6658C71.0446 42.6402 71.0514 42.6331 71.0432 42.6515C71.0363 42.6671 71.0227 42.6915 70.9997 42.7243C70.9537 42.7899 70.8837 42.8692 70.7971 42.9511C70.6187 43.1198 70.4115 43.2606 70.2695 43.3111L70.4569 43.8378C70.7029 43.7502 70.9762 43.5511 71.1812 43.3573C71.2863 43.2579 71.3838 43.1503 71.4573 43.0455C71.494 42.9932 71.5283 42.9367 71.5542 42.8783C71.5789 42.8226 71.6036 42.7486 71.6036 42.6658H71.0446ZM72.7201 41.5617C72.3513 41.5617 71.9536 41.6967 71.6491 41.8766C71.4954 41.9673 71.3531 42.0767 71.2456 42.1992C71.1425 42.3167 71.0446 42.4774 71.0446 42.6658H71.6036C71.6036 42.6724 71.6032 42.6392 71.6657 42.568C71.7238 42.5018 71.8151 42.4278 71.9335 42.3579C72.1731 42.2163 72.4735 42.1207 72.7201 42.1207V41.5617ZM74.7234 43.5032C74.8274 42.9462 74.6619 42.4456 74.2819 42.0915C73.9099 41.7449 73.3586 41.5617 72.7201 41.5617V42.1207C73.2591 42.1207 73.6594 42.2755 73.9008 42.5005C74.1343 42.7181 74.2444 43.0229 74.1738 43.4007L74.7234 43.5032ZM72.3974 45.5415C73.1109 45.2147 73.6494 44.9062 74.0287 44.585C74.4123 44.2602 74.6475 43.91 74.7234 43.5032L74.1739 43.4007C74.1282 43.6453 73.9847 43.8898 73.6675 44.1583C73.346 44.4306 72.8615 44.714 72.1646 45.0332L72.3974 45.5415ZM69.8481 47.9368C70.3887 46.8464 71.1772 46.1004 72.3974 45.5415L72.1646 45.0332C70.8389 45.6404 69.9499 46.4729 69.3472 47.6884L69.8481 47.9368ZM69.7675 49.5174C69.5629 49.3119 69.4944 49.1562 69.4973 48.9653C69.5006 48.7439 69.5997 48.4377 69.8481 47.9368L69.3472 47.6884C69.0969 48.1932 68.9436 48.5986 68.9383 48.957C68.9325 49.346 69.0992 49.6385 69.3713 49.9118L69.7675 49.5174ZM73.1411 49.8101C71.5339 49.8101 70.7548 49.8095 70.3265 49.7645C70.1165 49.7425 70.0208 49.7121 69.963 49.6824C69.9055 49.653 69.8647 49.6152 69.7676 49.5175L69.3712 49.9117C69.4602 50.0013 69.5598 50.1039 69.7079 50.1799C69.8557 50.2556 70.0309 50.2956 70.2681 50.3205C70.7341 50.3694 71.5547 50.3691 73.1411 50.3691V49.8101ZM76.4455 49.587C76.3903 49.6425 76.3548 49.6692 76.2959 49.6922C76.2256 49.7196 76.1091 49.7461 75.8848 49.7657C75.4346 49.805 74.6456 49.8101 73.1411 49.8101V50.3691C74.6325 50.3691 75.4525 50.3646 75.9334 50.3226C76.1746 50.3016 76.3542 50.2696 76.4993 50.2129C76.6557 50.1518 76.7546 50.0688 76.8418 49.9813L76.4455 49.587ZM76.4401 48.3723C76.5762 48.4964 76.6639 48.715 76.6663 48.9658C76.6686 49.2157 76.5853 49.4464 76.4455 49.587L76.8418 49.9813C77.1112 49.7105 77.2287 49.322 77.2253 48.9605C77.2219 48.5998 77.0974 48.215 76.8167 47.9592L76.4401 48.3723ZM74.3847 48.0777C75.1882 48.1097 75.662 48.1404 75.9667 48.1906C76.2597 48.2388 76.3601 48.2994 76.4402 48.3724L76.8167 47.9591C76.6297 47.7888 76.414 47.6976 76.0575 47.639C75.7128 47.5822 75.2038 47.5509 74.407 47.5191L74.3847 48.0777ZM72.4714 48.0013L74.3847 48.0777L74.407 47.5191L72.4937 47.4427L72.4714 48.0013ZM73.6673 46.8209L72.3581 47.4717L72.6069 47.9723L73.9162 47.3215L73.6673 46.8209ZM76.3184 44.087C75.9902 45.222 75.2168 46.0504 73.6673 46.8209L73.9162 47.3214C75.5504 46.5088 76.4691 45.5782 76.8554 44.2423L76.3184 44.087ZM72.7279 39.8411C75.2861 39.8069 76.9623 41.8611 76.3184 44.087L76.8554 44.2423C77.6196 41.6005 75.5942 39.2437 72.7204 39.2821L72.7279 39.8411ZM71.4404 40.0218C71.6799 39.9348 72.2655 39.8473 72.7279 39.8411L72.7204 39.2821C72.2281 39.2887 71.5722 39.3791 71.2494 39.4964L71.4404 40.0218ZM63.2856 32.0903C62.284 31.0113 60.7699 30.1152 59.4533 29.8334L59.3363 30.38C60.5286 30.6353 61.9436 31.4664 62.8759 32.4706L63.2856 32.0903ZM65.4009 38.5549C65.732 36.2499 64.9535 33.8865 63.2856 32.0903L62.8759 32.4707C64.4368 34.1516 65.153 36.3487 64.8475 38.4754L65.4009 38.5549ZM54.0695 44.6778C58.9905 47.0308 64.6214 43.983 65.4009 38.5549L64.8475 38.4754C64.1209 43.5357 58.8862 46.3613 54.3107 44.1734L54.0695 44.6778ZM49.8336 35.7804C49.0208 39.2473 50.8775 43.1515 54.0695 44.6778L54.3107 44.1734C51.3582 42.7617 49.6244 39.122 50.3779 35.908L49.8336 35.7804ZM51.6795 32.2716C50.6937 33.3556 50.1676 34.3555 49.8336 35.7804L50.3779 35.908C50.6902 34.5758 51.1712 33.6615 52.0931 32.6477L51.6795 32.2716ZM59.4533 29.8334C57.8818 29.497 56.4693 29.5159 55.1779 29.9206C53.8859 30.3254 52.736 31.1099 51.6795 32.2716L52.0931 32.6477C53.0965 31.5443 54.1654 30.8237 55.345 30.454C56.5252 30.0842 57.837 30.0591 59.3363 30.38L59.4533 29.8334Z" fill="#78BB21"/>
</svg>
