<svg width="102" height="92" viewBox="0 0 102 92" fill="none" xmlns="http://www.w3.org/2000/svg">
<path fill-rule="evenodd" clip-rule="evenodd" d="M66.477 1.1341C55.5438 2.82934 47.2423 11.9345 46.6289 22.9046C46.1093 32.1947 51.1658 40.8345 59.5934 45.0559C61.5951 46.0586 64.0175 46.8397 66.2169 47.1918C68.6898 47.5877 73.2838 47.3526 75.7842 46.7024C84.4106 44.4592 91.2098 37.1472 92.7771 28.4276C93.1559 26.3205 93.1476 21.9774 92.7607 19.9574C90.9805 10.6609 83.9071 3.42416 74.6315 1.40983C72.8476 1.02239 68.2089 0.865455 66.477 1.1341ZM75.6096 3.91164C82.9186 6.1079 88.4442 11.7987 90.2834 19.0242C92.1246 26.2574 90.0481 33.7738 84.7448 39.0726C76.3752 47.435 63.0903 47.346 54.7432 38.8719C52.395 36.4878 50.3195 32.8393 49.4543 29.5739C48.8226 27.1905 48.6754 22.6458 49.1533 20.2888C50.0492 15.8717 51.846 12.5025 54.9908 9.34291C57.4253 6.89717 59.7907 5.39825 62.9309 4.31137C65.5809 3.39414 66.8641 3.22012 70.4403 3.29306C73.3228 3.35184 74.0275 3.43603 75.6096 3.91164ZM72.8243 7.03743C69.9378 7.81523 67.6651 10.4169 67.2963 13.3659C67.1829 14.2725 67.2258 14.556 67.5273 14.8888C68.2834 15.7237 69.5016 15.0941 69.5016 13.8686C69.5016 12.1311 71.3084 9.73244 72.9632 9.2733C74.8881 8.73934 77.0076 9.20932 78.3339 10.4642C80.3912 12.411 80.4115 15.8709 78.3771 17.9035C76.8045 19.4748 76.8819 19.4658 64.8902 19.4658C55.3946 19.4658 54.269 19.5006 53.9649 19.8047C53.4822 20.2869 53.6449 21.1733 54.2742 21.4899C54.9399 21.8248 73.7043 21.8686 75.7306 21.5401C78.2048 21.1389 80.0606 19.8737 81.1318 17.8579C83.4816 13.4351 81.3093 8.31689 76.5446 7.04952C75.2204 6.6973 74.1005 6.69376 72.8243 7.03743ZM53.9762 24.3783C53.5813 24.7731 53.5559 25.3064 53.9092 25.778C54.1472 26.0959 55.3408 26.1311 67.6243 26.1828C82.4015 26.2449 81.5815 26.1732 82.9275 27.5181C83.8161 28.4061 84.1463 29.2048 84.1574 30.4922C84.1808 33.208 82.1424 35.0714 79.3973 34.844C77.3975 34.6784 75.9015 33.2355 75.5723 31.1549C75.38 29.9392 75.0562 29.4697 74.4104 29.4697C73.566 29.4697 73.1824 30.1526 73.3439 31.3687C73.7761 34.6227 76.532 37.0434 79.831 37.0666C81.0806 37.0753 81.5018 36.9751 82.7081 36.3819C86.9526 34.2949 87.6659 28.854 84.1136 25.6628C82.2542 23.9925 82.8479 24.0509 67.7062 24.0509C55.8005 24.0509 54.2674 24.0874 53.9762 24.3783ZM53.8988 28.6777C53.5913 28.9849 53.5771 29.5724 53.8644 30.1087C54.0675 30.4876 54.3445 30.5117 58.5056 30.513C61.074 30.5136 63.277 30.6101 63.7555 30.7429C65.3706 31.1908 66.598 33.1092 66.2947 34.7121C65.7413 37.6389 62.311 38.736 60.2261 36.6531C59.5721 35.9997 59.3838 35.566 58.9853 33.7974C58.8149 33.0406 57.9747 32.8091 57.3714 33.3526C56.4286 34.2028 57.4541 37.3596 59.0946 38.6578C62.0621 41.0062 66.4922 39.9231 68.0644 36.4651C68.6639 35.1463 68.5984 32.9581 67.9188 31.5953C67.2696 30.2937 66.0408 29.1921 64.7467 28.7515C63.5189 28.3334 54.306 28.2709 53.8988 28.6777ZM89.9918 52.3014C89.3873 52.4642 88.5894 52.752 88.2187 52.9413C87.5813 53.2666 71.9603 63.7542 69.8827 65.2517L68.9079 65.954L68.662 64.7498C67.9447 61.237 65.1457 58.2946 61.7655 57.4997C61.0298 57.3265 52.6837 56.2434 43.2188 55.0925C20.283 52.3037 18.3992 52.2354 14.5012 54.0511C11.6904 55.3601 9.57258 57.4205 8.1168 60.2618L7.23633 61.9804L4.83187 61.9812C2.18398 61.9823 1.5 62.2178 1.5 63.1286C1.5 64.0139 2.199 64.2748 4.57113 64.2748C6.45515 64.2748 6.71485 64.318 6.71485 64.6314C6.71485 64.8278 6.51314 66.5165 6.26679 68.3846C5.83479 71.6598 5.83208 71.7959 6.19482 72.1963C6.62786 72.6743 7.10575 72.7248 7.62285 72.3469C7.90759 72.1389 8.11263 71.1502 8.58406 67.7097C9.25302 62.8274 9.63474 61.553 10.9706 59.7397C12.7171 57.3695 15.1756 55.7826 18.0392 55.178C20.3031 54.6999 22.961 54.8731 34.2492 56.2342C64.5125 59.8834 62.3708 59.5188 64.3712 61.361C66.3758 63.2073 67.1309 66.3667 66.1733 68.9021C65.6228 70.3597 64.2575 71.9174 62.8685 72.6727C60.8126 73.7908 60.7703 73.7896 48.3018 72.2907C40.1456 71.3103 36.8539 70.9866 36.5713 71.1377C36.006 71.4401 35.895 72.12 36.3245 72.6502C36.6658 73.071 37.4818 73.1996 47.5173 74.4148C53.4707 75.1357 58.9201 75.7282 59.627 75.7316C63.4687 75.7497 66.9663 73.1783 68.429 69.2603C68.5596 68.9108 69.4926 68.1401 71.0994 67.0549C72.4578 66.1374 76.9015 63.1334 80.9743 60.3792C85.0471 57.6248 88.8018 55.1471 89.318 54.8733C90.1393 54.4375 90.5308 54.376 92.4469 54.382C94.2304 54.3877 94.8166 54.4713 95.6027 54.8329C96.8401 55.4016 98.0164 56.5802 98.5596 57.7955C99.4425 59.7708 98.9156 63.5164 97.4601 65.6122C96.3614 67.1943 96.7321 66.9252 81.3545 77.3007C79.1459 78.7909 74.8011 81.7362 71.6993 83.846C68.5976 85.9558 65.5905 87.8769 65.0168 88.1151C63.9791 88.5465 63.8247 88.5488 33.6235 88.6045C16.9307 88.6351 2.9637 88.7118 2.58552 88.7752C1.64476 88.9325 1.29766 89.6745 1.80392 90.4462L2.16688 91L32.9662 90.8537C58.7423 90.7314 63.9609 90.6584 64.9655 90.4069C66.1887 90.1007 67.6113 89.3571 69.293 88.1451C69.8093 87.7729 76.2392 83.411 83.5817 78.452C90.9242 73.4928 97.2957 69.0948 97.7406 68.6786C98.8781 67.6149 100.056 65.7427 100.618 64.106C101.002 62.9873 101.097 62.2586 101.1 60.4192C101.103 58.2831 101.06 58.0341 100.458 56.7719C99.3307 54.4062 97.4448 52.9409 94.6933 52.2927C93.0748 51.9113 91.4307 51.9144 89.9918 52.3014Z" fill="#78BB21" stroke="#78BB21" stroke-width="1.11906"/>
<path fill-rule="evenodd" clip-rule="evenodd" d="M26.3192 2.66916C25.3655 3.09265 24.9664 3.6337 22.6168 7.68944C14.0424 22.4908 13.1674 23.9781 12.6768 25.5828C12.6056 25.8157 12.5425 26.051 12.4652 26.3298C11.8851 28.4212 11.7449 30.3397 12.0242 32.3588C12.8784 38.5304 16.8467 43.2624 22.8843 45.309C24.9737 46.0172 28.7078 46.1235 31.019 45.5406C34.2332 44.7298 37.3221 42.9066 39.1074 40.7668C43.292 35.7514 44.2078 29.4964 41.5701 23.9457C40.6145 21.9348 30.2595 4.05469 29.6959 3.44216C28.7891 2.45699 27.4744 2.15604 26.3192 2.66916ZM28.1313 5.03228C28.3032 5.23298 29.5529 7.31963 30.9085 9.6695C34.6985 16.2395 37.2172 20.6144 38.5362 22.9169C40.1004 25.6476 40.6092 27.2034 40.7471 29.6773C41.3434 40.3737 29.8747 47.2943 20.5758 41.8491C18.0112 40.3472 15.7356 37.4722 14.7362 34.4708C13.7496 31.5082 14.0276 27.5543 15.4177 24.7795C16.2665 23.0849 26.4094 5.49038 26.8013 5.03228C26.973 4.83158 27.2721 4.66756 27.4661 4.66756C27.6601 4.66756 27.9592 4.83158 28.1313 5.03228Z" fill="#78BB21"/>
<path d="M22.6168 7.68944L22.1327 7.40895L22.1327 7.40896L22.6168 7.68944ZM26.3192 2.66916L26.5463 3.18053L26.5463 3.18051L26.3192 2.66916ZM12.6768 25.5828L13.2119 25.7464L12.6768 25.5828ZM12.4652 26.3298L11.926 26.1802L11.926 26.1802L12.4652 26.3298ZM12.0242 32.3588L11.47 32.4355L11.47 32.4355L12.0242 32.3588ZM22.8843 45.309L22.7046 45.8389L22.7046 45.8389L22.8843 45.309ZM31.019 45.5406L31.1558 46.0831H31.1558L31.019 45.5406ZM39.1074 40.7668L39.5371 41.1253L39.5371 41.1253L39.1074 40.7668ZM41.5701 23.9457L41.0647 24.1859L41.0647 24.1859L41.5701 23.9457ZM29.6959 3.44216L30.1076 3.0633L30.1076 3.06324L29.6959 3.44216ZM30.9085 9.6695L31.3932 9.38991L31.3932 9.38989L30.9085 9.6695ZM28.1313 5.03228L28.5563 4.66833L28.5561 4.66807L28.1313 5.03228ZM38.5362 22.9169L38.0507 23.195L38.0507 23.195L38.5362 22.9169ZM40.7471 29.6773L40.1884 29.7084L40.1884 29.7084L40.7471 29.6773ZM20.5758 41.8491L20.2931 42.3319L20.2931 42.3319L20.5758 41.8491ZM14.7362 34.4708L15.2671 34.294L15.2671 34.294L14.7362 34.4708ZM15.4177 24.7795L15.918 25.0301L15.918 25.0301L15.4177 24.7795ZM26.8013 5.03228L27.2264 5.39604L27.2265 5.39598L26.8013 5.03228ZM23.101 7.96992C24.2813 5.93246 24.9515 4.81406 25.4418 4.1493C25.6827 3.82259 25.8653 3.62651 26.0271 3.49162C26.184 3.36079 26.339 3.27255 26.5463 3.18053L26.0921 2.15778C25.8225 2.27751 25.57 2.41571 25.3104 2.63218C25.0557 2.84458 24.8129 3.11666 24.5412 3.48511C24.0061 4.21068 23.3019 5.39067 22.1327 7.40895L23.101 7.96992ZM13.2119 25.7464C13.4381 25.0065 13.7525 24.2793 15.104 21.8575C16.453 19.44 18.8121 15.3735 23.101 7.96991L22.1327 7.40896C17.8471 14.8067 15.4815 18.8845 14.1268 21.3122C12.7744 23.7356 12.4061 24.5544 12.1417 25.4193L13.2119 25.7464ZM13.0044 26.4793C13.0835 26.1941 13.1435 25.9701 13.2119 25.7464L12.1417 25.4193C12.0677 25.6613 12.0016 25.9079 11.926 26.1802L13.0044 26.4793ZM12.5785 32.2821C12.3103 30.3434 12.4434 28.502 13.0044 26.4793L11.926 26.1802C11.3268 28.3405 11.1795 30.3359 11.47 32.4355L12.5785 32.2821ZM23.0639 44.7791C17.221 42.7985 13.4028 38.2377 12.5785 32.2821L11.47 32.4355C12.3541 38.823 16.4724 43.7263 22.7046 45.8389L23.0639 44.7791ZM30.8822 44.998C29.7921 45.273 28.3357 45.391 26.8844 45.3497C25.4308 45.3083 24.036 45.1086 23.0639 44.7791L22.7046 45.8389C23.822 46.2177 25.339 46.4252 26.8526 46.4683C28.3685 46.5114 29.9347 46.3911 31.1558 46.0831L30.8822 44.998ZM38.6778 40.4084C36.9817 42.4413 34.0041 44.2106 30.8822 44.998L31.1558 46.0831C34.4624 45.2491 37.6625 43.372 39.5371 41.1253L38.6778 40.4084ZM41.0647 24.1859C43.6014 29.524 42.7338 35.5471 38.6778 40.4084L39.5371 41.1253C43.8503 35.9556 44.8142 29.4689 42.0755 23.7056L41.0647 24.1859ZM29.2841 3.82103C29.2801 3.81661 29.3254 3.87558 29.4421 4.05566C29.5456 4.21523 29.6835 4.4353 29.8521 4.70955C30.1888 5.25739 30.6415 6.01108 31.1735 6.9071C32.2371 8.69858 33.6131 11.052 35.0018 13.4499C37.7887 18.2621 40.5996 23.207 41.0647 24.1859L42.0755 23.7056C41.5851 22.6735 38.7407 17.6729 35.9702 12.8891C34.5803 10.4891 33.2021 8.13197 32.1358 6.33582C31.6027 5.43803 31.1466 4.67864 30.8054 4.12357C30.635 3.84636 30.4917 3.61752 30.3811 3.44689C30.2838 3.29679 30.1822 3.14429 30.1076 3.0633L29.2841 3.82103ZM26.5463 3.18051C27.4651 2.77239 28.5269 2.99834 29.2842 3.82109L30.1076 3.06324C29.0513 1.91564 27.4836 1.5397 26.092 2.1578L26.5463 3.18051ZM31.3932 9.38989C30.7142 8.2129 30.0613 7.10108 29.556 6.25746C29.3035 5.83591 29.0869 5.4796 28.9219 5.21496C28.7711 4.97321 28.6338 4.75889 28.5563 4.66833L27.7063 5.39624C27.701 5.38999 27.7203 5.41433 27.7771 5.50061C27.8268 5.57593 27.8922 5.67868 27.9724 5.80717C28.1323 6.06366 28.3451 6.41351 28.596 6.83244C29.0975 7.66978 29.7472 8.77622 30.4239 9.9491L31.3932 9.38989ZM39.0217 22.6388C37.7023 20.3354 35.1831 15.9599 31.3932 9.38991L30.4238 9.94908C34.2138 16.5192 36.7322 20.8933 38.0507 23.195L39.0217 22.6388ZM41.3057 29.6461C41.1619 27.0651 40.6178 25.4251 39.0217 22.6388L38.0507 23.195C39.583 25.87 40.0565 27.3417 40.1884 29.7084L41.3057 29.6461ZM20.2931 42.3319C29.9697 47.9983 41.9274 40.7966 41.3057 29.6461L40.1884 29.7084C40.7594 39.9507 29.7798 46.5903 20.8586 41.3662L20.2931 42.3319ZM14.2054 34.6475C15.2446 37.7687 17.6034 40.7569 20.2931 42.3319L20.8586 41.3662C18.4189 39.9376 16.2266 37.1757 15.2671 34.294L14.2054 34.6475ZM14.9174 24.5289C13.4604 27.4374 13.1721 31.5451 14.2054 34.6476L15.2671 34.294C14.327 31.4713 14.5949 27.6713 15.918 25.0301L14.9174 24.5289ZM26.3762 4.66852C26.3168 4.73787 26.227 4.88034 26.143 5.01549C26.0446 5.1738 25.9133 5.39018 25.7545 5.65523C25.4365 6.18587 25.0038 6.91924 24.4938 7.78997C23.4737 9.53185 22.1418 11.8283 20.7961 14.1628C18.1117 18.8193 15.3514 23.6625 14.9174 24.5289L15.918 25.0301C16.3328 24.2019 19.0683 19.4005 21.7656 14.7217C23.1106 12.3884 24.441 10.0944 25.4594 8.35551C25.9688 7.48586 26.3993 6.75625 26.7144 6.23039C26.8721 5.9672 26.9997 5.75693 27.0934 5.60637C27.2014 5.43262 27.2368 5.38395 27.2264 5.39604L26.3762 4.66852ZM27.4661 4.10803C27.2354 4.10803 27.0156 4.19669 26.8562 4.28408C26.6862 4.37736 26.5125 4.50906 26.3761 4.66858L27.2265 5.39598C27.2617 5.35479 27.3235 5.30413 27.3944 5.26522C27.4281 5.24677 27.4559 5.23534 27.4746 5.22936C27.496 5.22254 27.4919 5.22708 27.4661 5.22708V4.10803ZM28.5561 4.66807C28.4195 4.50886 28.246 4.37728 28.0759 4.28404C27.9166 4.19669 27.6968 4.10803 27.4661 4.10803V5.22708C27.4403 5.22708 27.4362 5.22254 27.4576 5.22936C27.4763 5.23535 27.5042 5.24679 27.5379 5.26527C27.6089 5.30421 27.671 5.355 27.7065 5.39649L28.5561 4.66807Z" fill="#78BB21"/>
</svg>
